<?xml version="1.0" encoding="UTF-8" standalone="no"?>
<!DOCTYPE svg PUBLIC "-//W3C//DTD SVG 1.1//EN" "http://www.w3.org/Graphics/SVG/1.1/DTD/svg11.dtd">
<svg width="100%" height="100%" viewBox="0 0 2475 3345" version="1.1" xmlns="http://www.w3.org/2000/svg" xmlns:xlink="http://www.w3.org/1999/xlink" xml:space="preserve" xmlns:serif="http://www.serif.com/" style="fill-rule:evenodd;clip-rule:evenodd;stroke-linecap:round;stroke-linejoin:round;stroke-miterlimit:1.5;">
    <g transform="matrix(1,0,0,1,-10470.1,-4161.54)">
        <g transform="matrix(1,0,0,1,8148.72,4192.23)">
            <rect id="_0.4.0" serif:id="0.4.0" x="2321.37" y="-30.69" width="2474.89" height="3344.04" style="fill:none;"/>
            <clipPath id="_clip1">
                <rect id="_0.4.01" serif:id="0.4.0" x="2321.37" y="-30.69" width="2474.89" height="3344.04"/>
            </clipPath>
            <g clip-path="url(#_clip1)">
                <g transform="matrix(22.3565,-3.47813,2.66636,17.1387,-6264.77,740.636)">
                    <path d="M435.135,145.091L436.011,182.905L434.737,187.761C434.737,187.761 432.309,190.968 426.378,189.979L425.053,184.006L421.494,157.508L419.516,157.508L414.19,183.186C414.19,183.186 408.416,183.735 403.67,181.955L407.579,149.093L435.135,145.091Z" style="fill:rgb(24,24,24);fill-rule:nonzero;"/>
                </g>
                <g transform="matrix(1,0,0,1,-8148.72,-4192.23)">
                    <path d="M11355.5,7244.3L11425,7276.48L11422.4,7353.71L11140.5,7357.57L11192,7295.79L11355.5,7244.3Z"/>
                </g>
                <g transform="matrix(0.997221,-0.0744993,0.0744993,0.997221,-8483.66,-3306.43)">
                    <g id="Maza">
                        <path d="M10551.6,5227.94L10601.3,5160.03L10493.9,5136.28L10499.2,5261.98L10551.6,5227.94Z" style="fill:rgb(22,22,22);"/>
                    </g>
                </g>
                <g id="Brazo-derecho" serif:id="Brazo derecho" transform="matrix(0.998605,-0.0527972,0.0527972,0.998605,-152.641,115.795)">
                    <g transform="matrix(11.9527,26.9806,-27.2123,12.2233,1680.81,-11034.6)">
                        <path d="M405.768,136.139C405.768,136.139 393.101,132.463 388.653,126.003L391.99,124.762C391.99,124.762 396.506,127.586 403.237,129.325C409.967,131.064 405.768,136.139 405.768,136.139Z" style="fill-rule:nonzero;"/>
                    </g>
                    <g transform="matrix(56.2513,-2.55516,1.16548,28.7014,-19817.8,-1136.52)">
                        <path d="M403.033,123.159L408.829,110.494L415.042,115.598L404.943,133.798L403.033,123.159Z" style="fill:rgb(24,24,24);fill-rule:nonzero;"/>
                    </g>
                    <g id="Mango" transform="matrix(1.16604,-0.0253615,0.0217449,0.999764,-9840.05,-3732.31)">
                        <path d="M10546.6,5077.34L12274.2,4806.05L12345.3,4898.53L10503.4,5148.53L10546.6,5077.34Z" style="fill:rgb(35,35,35);"/>
                    </g>
                    <g transform="matrix(0.909111,-0.0197732,0.0197732,0.909111,-6983.11,-3351.88)">
                        <circle cx="12764.9" cy="4803.02" r="315.883" style="fill:rgb(24,24,24);"/>
                    </g>
                    <g id="Pinchos" transform="matrix(1.08609,-0.0236224,0.0217449,0.999764,88.413,244.972)">
                        <g transform="matrix(0.92052,-1.40523e-16,-1.27748e-16,1,-7489.33,-4280.21)">
                            <path d="M12511.9,5051.59L12454.6,5133.42L12573.3,5096.59L12511.9,5051.59Z" style="fill:rgb(120,120,120);"/>
                        </g>
                        <g transform="matrix(0.92052,-1.40523e-16,-1.27748e-16,1,-7489.33,-4280.21)">
                            <path d="M12647,5092.5L12671.5,5346.19L12765.6,5117.05L12647,5092.5Z" style="fill:rgb(120,120,120);"/>
                        </g>
                        <g transform="matrix(0.92052,-1.40523e-16,-1.27748e-16,1,-7489.33,-4280.21)">
                            <path d="M12708.3,4687.42L12773.8,4437.82L12827,4687.42L12708.3,4687.42Z" style="fill:rgb(120,120,120);"/>
                        </g>
                        <g transform="matrix(0.92052,-1.40523e-16,-1.27748e-16,1,-7489.33,-4280.21)">
                            <path d="M12532.4,4789.71L12311.4,4732.43L12520.1,4904.28L12532.4,4789.71Z" style="fill:rgb(120,120,120);"/>
                        </g>
                        <g transform="matrix(1.26571,-1.93218e-16,-2.04396e-16,1.6,-11920.9,-7197.41)">
                            <path d="M12761.5,4912.47L12810.6,4977.93L12827,4896.1L12761.5,4912.47Z" style="fill:rgb(120,120,120);"/>
                        </g>
                        <g transform="matrix(0.92052,-1.40523e-16,-1.27748e-16,1,-7489.33,-4280.21)">
                            <path d="M12908.8,5145.69L13097,5211.16L12978.4,5031.13L12908.8,5145.69" style="fill:rgb(120,120,120);"/>
                        </g>
                    </g>
                    <g transform="matrix(0.717462,-0.881889,0.841317,0.684455,-20.9692,3160.01)">
                        <path d="M2967.6,1256.73L2851.32,1115.31L2599.9,1159.31L2769.61,1360.44L2967.6,1256.73Z" style="fill:rgb(42,42,42);"/>
                    </g>
                    <g transform="matrix(0.906014,0.395219,-0.394983,0.910706,733.483,-659.951)">
                        <path d="M2594.87,686.648L2700.47,520.713L2871.43,606.194L2695.44,734.417L2594.87,686.648Z"/>
                    </g>
                </g>
                <g id="Cabeza">
                    <g transform="matrix(2.80976,-0.722808,0.63845,2.48184,3769.12,314.443)">
                        <clipPath id="_clip2">
                            <rect x="-226.196" y="-34.028" width="248.03" height="302.741"/>
                        </clipPath>
                        <g clip-path="url(#_clip2)">
                            <path d="M-164.699,282.94L-164.699,289.919C-164.699,289.919 -172.844,294.571 -170.749,302.947C-170.749,302.947 -180.521,308.765 -172.145,313.88L-169.354,313.88L-169.354,323.884C-169.354,323.884 -174.007,338.773 -183.311,343.891C-192.616,349.008 -193.315,349.239 -192.849,352.265C-192.383,355.289 -190.755,356.685 -190.755,356.685C-190.755,356.685 -204.539,367.734 -204.016,377.679C-203.493,387.624 -202.445,401.581 -190.93,408.735C-190.93,408.735 -213.612,414.667 -212.738,419.553C-211.867,424.437 -205.935,428.975 -198.607,432.289C-191.278,435.604 -190.581,437.175 -190.581,437.175L-190.581,445.666L-0.349,445.666L-0.349,437.175C-0.349,437.175 0.349,435.604 7.677,432.289C15.005,428.975 20.937,424.437 21.809,419.553C22.682,414.667 0,408.735 0,408.735M0,408.735C11.515,401.581 12.563,387.624 13.086,377.679C13.609,367.734 -0.174,356.685 -0.174,356.685C-0.174,356.685 1.453,355.289 1.919,352.265C2.385,349.239 1.686,349.008 -7.618,343.891C-16.923,338.773 -21.576,323.884 -21.576,323.884L-21.576,313.88L-18.785,313.88C-10.409,308.765 -20.179,302.947 -20.179,302.947C-18.086,294.571 -26.23,289.919 -26.23,289.919L-26.23,282.94L-30.936,282.94M-30.936,282.94L-30.936,268.516C-30.936,268.516 -14.652,267.12 -13.255,262.001C-11.861,256.884 -13.255,252.697 -13.255,252.697C11.869,231.294 0.379,175.928 0.379,175.928C39.603,119.629 -3.485,89.853 -3.485,89.853C11.869,54.028 -23.493,51.236 -23.493,51.236C-30.937,13.55 -71.88,0.523 -71.88,-1.339C-71.88,-3.2 -69.087,-13.9 -63.039,-22.625C-56.992,-31.348 -60.713,-33.791 -60.713,-33.791C-80.254,-36.931 -101.657,-7.853 -101.657,-7.853C-101.657,-7.853 -162.141,-3.2 -155.628,23.785C-155.628,23.785 -182.381,39.72 -182.031,65.195C-181.682,90.668 -202.968,116.839 -207.854,122.423C-212.738,128.005 -222.859,133.938 -220.766,139.171C-218.67,144.406 -204.364,155.224 -204.016,160.108C-203.667,164.994 -199.13,167.088 -199.13,167.088C-199.13,167.088 -196.687,178.952 -197.385,184.535C-198.084,190.118 -190.755,191.164 -188.313,187.326L-178.891,189.61C-178.891,189.61 -176.448,196.778 -170.516,189.61C-164.584,182.442 -163.886,176.858 -156.907,176.51C-149.929,176.161 -137.714,174.066 -144.345,159.062C-150.975,144.057 -133.179,126.261 -128.992,123.818C-124.803,121.375 -112.242,115.095 -110.845,111.954C-109.449,108.812 -113.288,124.865 -117.126,131.843C-120.965,138.823 -165.631,227.107 -166.329,233.737C-167.027,240.367 -174.471,251.998 -167.725,265.724C-167.725,265.724 -163.538,268.982 -159.351,268.285L-159.351,282.94M-159.351,282.94L-164.699,282.94" style="fill-rule:nonzero;"/>
                        </g>
                    </g>
                    <g transform="matrix(1,0,0,1,2387.18,-65.9574)">
                        <path d="M1011.98,622.981L1005.55,692.17L1066.69,592.408L1011.98,622.981Z" style="fill:rgb(255,0,0);stroke:rgb(255,0,0);stroke-width:1px;"/>
                    </g>
                </g>
                <g id="Pecho" transform="matrix(32.5296,4.38119,-3.39869,25.2347,-9652.44,-3666.73)">
                    <path d="M408.797,113.086C408.797,113.086 409.952,136.527 411.23,146.556L430.629,143.675L437.252,107.645C437.252,107.645 428.126,106.504 423.944,108.763L420.823,112.559C420.823,112.559 418.527,110.023 416.44,109.466C413.277,109.684 412.207,111.692 408.52,112.299L408.797,113.086Z" style="fill:rgb(7,7,7);fill-rule:nonzero;"/>
                </g>
                <g id="Cintura" transform="matrix(1,0,0,1,22.9138,3.27341)">
                    <g transform="matrix(25.2174,-46.448,23.6095,12.9653,-9297.98,19405.8)">
                        <path d="M403.033,123.159L408.829,110.494L414.236,116.459L404.943,133.798L403.033,123.159Z" style="fill:rgb(14,14,14);fill-rule:nonzero;"/>
                    </g>
                    <g transform="matrix(-25.7907,-46.1322,-23.4471,13.2567,16631.4,19239.3)">
                        <path d="M403.033,123.159L408.829,110.494L415.042,115.598L404.943,133.798L403.033,123.159Z" style="fill:rgb(14,14,14);fill-rule:nonzero;"/>
                    </g>
                </g>
                <g id="Brazo-derecho1" serif:id="Brazo derecho" transform="matrix(0.518533,-0.836027,0.80607,0.499953,1433.12,3425.36)">
                    <g transform="matrix(22.4576,-19.1436,19.469,22.6026,-8748.41,6338.99)">
                        <path d="M405.768,136.139C405.768,136.139 393.101,132.463 388.653,126.003L391.99,124.762C391.99,124.762 396.506,127.586 403.237,129.325C409.967,131.064 405.768,136.139 405.768,136.139Z" style="fill-rule:nonzero;"/>
                    </g>
                    <g transform="matrix(56.2513,-2.55516,1.16548,28.7014,-19817.8,-1136.52)">
                        <path d="M403.033,123.159L408.829,110.494L415.042,115.598L404.943,133.798L403.033,123.159Z" style="fill:rgb(24,24,24);fill-rule:nonzero;"/>
                    </g>
                    <g transform="matrix(0.0894723,-1.13335,1.08121,0.085356,1430.24,4601.62)">
                        <path d="M2967.6,1256.73L2851.32,1115.31L2599.9,1159.31L2769.61,1360.44L2967.6,1256.73Z" style="fill:rgb(42,42,42);"/>
                    </g>
                    <g transform="matrix(-0.608409,-0.779037,0.781064,-0.612647,3576.73,4216.51)">
                        <path d="M2594.87,686.648L2700.47,520.713L2871.43,606.194L2695.44,734.417L2594.87,686.648Z"/>
                    </g>
                </g>
                <g id="Botas">
                    <g transform="matrix(0.99882,0.0485733,-0.0563692,1.15913,2648.14,-625.489)">
                        <path d="M1433.12,3134.38L1348.51,2786.98L1485.67,2672.43L1524.77,3110.69L1433.12,3134.38Z" style="stroke:rgb(43,43,45);stroke-width:0.92px;"/>
                    </g>
                    <g transform="matrix(0.984811,0.267446,-0.279818,1.03037,3072.55,-473.149)">
                        <path d="M1027.39,3128.16L950.958,2729.91L1097.79,2681.64L1111.86,3146.26L1027.39,3128.16Z" style="stroke:rgb(43,43,45);stroke-width:0.96px;"/>
                    </g>
                </g>
                <g id="Bota-izq" serif:id="Bota izq">
                    <g id="Rodilleras">
                        <g transform="matrix(1.64269,0.66004,-0.475037,1.18226,2727.97,-915.979)">
                            <path d="M1105.27,2237.31L942.907,2210.89L999.675,2393.19L1132.93,2360.5L1105.27,2237.31Z" style="fill:rgb(42,42,42);stroke:black;stroke-width:0.65px;"/>
                        </g>
                        <g transform="matrix(-1.53972,0.795129,0.60176,1.16527,4120.8,-990.197)">
                            <path d="M1105.27,2237.31L942.907,2210.89L999.675,2393.19L1132.93,2360.5L1105.27,2237.31Z" style="fill:rgb(42,42,42);stroke:black;stroke-width:0.65px;"/>
                        </g>
                    </g>
                    <g transform="matrix(0.988829,-0.149053,0.149053,0.988829,-501.683,324.321)">
                        <path d="M3947.42,3392.52L3896.35,3463.24L4080.99,3490.73L4045.63,3380.74L3947.42,3392.52Z" style="stroke:black;stroke-width:3px;"/>
                    </g>
                </g>
                <g transform="matrix(1,0,0,1,-8148.72,-4192.23)">
                    <path d="M11414.7,5861.48L11647.1,5822.2L11787.8,5828.75L12010.4,5871.31L12085.7,5985.88L11791.1,6087.35L11630.7,6087.35L11365.6,5953.14L11414.7,5861.48Z"/>
                </g>
                <g transform="matrix(1,0,0,1,-8148.72,-4192.23)">
                    <path d="M11418.4,5171L11682.6,5467.39L11371.3,5851.86L11436.7,5906.86L11738,5513.8L11991.9,5927.81L12067.8,5899L11810.1,5475.46L12305.5,5142.62L12145.7,5118.52L11758.2,5392.31L11528.4,5139.57L11404.2,5147.74L11418.4,5171Z"/>
                </g>
                <g transform="matrix(1,0,0,1,-8148.72,-4192.23)">
                    <path d="M11399.1,5826.88L11366.9,5826.88L11313.3,6042.75L11279.8,6186.21L11313.3,6242.52L11412.5,5881.85L11399.1,5826.88Z"/>
                </g>
                <g transform="matrix(-1,0,0,1,15297.1,-4168.1)">
                    <path d="M11399.1,5826.88L11366.9,5826.88L11313.3,6042.75L11279.8,6186.21L11313.3,6242.52L11412.5,5881.85L11399.1,5826.88Z"/>
                </g>
                <g transform="matrix(1,0,0,1,-8148.72,-4192.23)">
                    <path d="M11752,5405.28L11700.5,5459.98L11741.2,5492.16L11788.4,5466.42L11752,5405.28Z" style="fill:rgb(205,0,0);"/>
                </g>
            </g>
        </g>
    </g>
</svg>
